<svg height="1678" width="720" xmlns="http://www.w3.org/2000/svg">
<rect height="1678" fill="#555" width="720"></rect>
<text fill="#7f7" font-family="Courier New" font-size="12" xml:space="preserve">
<tspan x="10" y="26">└─┬ antd@2.9.0 </tspan>
<tspan x="10" y="42">  ├── array-tree-filter@1.0.1 </tspan>
<tspan x="10" y="58">  ├─┬ babel-runtime@6.23.0 </tspan>
<tspan x="10" y="74">  │ ├── core-js@2.4.1 </tspan>
<tspan x="10" y="90">  │ └── regenerator-runtime@0.10.3 </tspan>
<tspan x="10" y="106">  ├── classnames@2.2.5 </tspan>
<tspan x="10" y="122">  ├─┬ css-animation@1.3.2 </tspan>
<tspan x="10" y="138">  │ └─┬ component-classes@1.2.6 </tspan>
<tspan x="10" y="154">  │   └── component-indexof@0.0.3 </tspan>
<tspan x="10" y="170">  ├─┬ dom-closest@0.2.0 </tspan>
<tspan x="10" y="186">  │ └── dom-matches@2.0.0 </tspan>
<tspan x="10" y="202">  ├── lodash.debounce@4.0.8 </tspan>
<tspan x="10" y="218">  ├── moment@2.18.1 </tspan>
<tspan x="10" y="234">  ├── object-assign@4.1.1 </tspan>
<tspan x="10" y="250">  ├── omit.js@0.1.0 </tspan>
<tspan x="10" y="266">  ├── rc-animate@2.3.3 </tspan>
<tspan x="10" y="282">  ├─┬ rc-calendar@7.8.0 </tspan>
<tspan x="10" y="298">  │ ├─┬ rc-trigger@1.9.1 </tspan>
<tspan x="10" y="314">  │ │ └─┬ rc-align@2.3.3 </tspan>
<tspan x="10" y="330">  │ │   └── dom-align@1.5.3 </tspan>
<tspan x="10" y="346">  │ └── rc-util@3.4.1 </tspan>
<tspan x="10" y="362">  ├── rc-cascader@0.11.1 </tspan>
<tspan x="10" y="378">  ├── rc-checkbox@1.5.0 </tspan>
<tspan x="10" y="394">  ├── rc-collapse@1.6.12 </tspan>
<tspan x="10" y="410">  ├── rc-dialog@6.5.8 </tspan>
<tspan x="10" y="426">  ├── rc-dropdown@1.4.10 </tspan>
<tspan x="10" y="442">  ├─┬ rc-editor-mention@0.5.5 </tspan>
<tspan x="10" y="458">  │ ├── dom-scroll-into-view@1.2.1 </tspan>
<tspan x="10" y="474">  │ ├─┬ draft-js@0.10.0 </tspan>
<tspan x="10" y="490">  │ │ ├─┬ fbjs@0.8.12 </tspan>
<tspan x="10" y="506">  │ │ │ ├── core-js@1.2.7 </tspan>
<tspan x="10" y="522">  │ │ │ ├─┬ isomorphic-fetch@2.2.1 </tspan>
<tspan x="10" y="538">  │ │ │ │ ├─┬ node-fetch@1.6.3 </tspan>
<tspan x="10" y="554">  │ │ │ │ │ ├─┬ encoding@0.1.12 </tspan>
<tspan x="10" y="570">  │ │ │ │ │ │ └── iconv-lite@0.4.15 </tspan>
<tspan x="10" y="586">  │ │ │ │ │ └── is-stream@1.1.0 </tspan>
<tspan x="10" y="602">  │ │ │ │ └── whatwg-fetch@2.0.3 </tspan>
<tspan x="10" y="618">  │ │ │ ├─┬ promise@7.1.1 </tspan>
<tspan x="10" y="634">  │ │ │ │ └── asap@2.0.5 </tspan>
<tspan x="10" y="650">  │ │ │ ├── setimmediate@1.0.5 </tspan>
<tspan x="10" y="666">  │ │ │ └── ua-parser-js@0.7.12 </tspan>
<tspan x="10" y="682">  │ │ └── immutable@3.7.6 </tspan>
<tspan x="10" y="698">  │ ├── immutable@3.8.1 </tspan>
<tspan x="10" y="714">  │ ├─┬ rc-editor-core@0.6.19 </tspan>
<tspan x="10" y="730">  │ │ ├── lodash@4.17.4 </tspan>
<tspan x="10" y="746">  │ │ ├── UNMET PEER DEPENDENCY react@^0.14.0 || ^15.0.0-rc</tspan>
<tspan x="10" y="762">  │ │ └── UNMET PEER DEPENDENCY react-dom@^0.14.0 || ^15.0.0-rc</tspan>
<tspan x="10" y="778">  │ ├── UNMET PEER DEPENDENCY react@^0.14.0 || ^15.0.0-rc</tspan>
<tspan x="10" y="794">  │ └── UNMET PEER DEPENDENCY react-dom@^0.14.0 || ^15.0.0-rc</tspan>
<tspan x="10" y="810">  ├─┬ rc-form@1.3.1 </tspan>
<tspan x="10" y="826">  │ ├── async-validator@1.6.8 </tspan>
<tspan x="10" y="842">  │ ├── hoist-non-react-statics@1.2.0 </tspan>
<tspan x="10" y="858">  │ ├── lodash.get@4.4.2 </tspan>
<tspan x="10" y="874">  │ ├── lodash.has@4.5.2 </tspan>
<tspan x="10" y="890">  │ └── lodash.set@4.3.2 </tspan>
<tspan x="10" y="906">  ├─┬ rc-input-number@3.4.8 </tspan>
<tspan x="10" y="922">  │ └── rc-touchable@1.0.13 </tspan>
<tspan x="10" y="938">  ├─┬ rc-menu@5.0.9 </tspan>
<tspan x="10" y="954">  │ └── rc-util@3.4.1 </tspan>
<tspan x="10" y="970">  ├── rc-notification@1.4.1 </tspan>
<tspan x="10" y="986">  ├── rc-pagination@1.8.2 </tspan>
<tspan x="10" y="1002">  ├── rc-progress@2.1.0 </tspan>
<tspan x="10" y="1018">  ├── rc-radio@2.0.0 </tspan>
<tspan x="10" y="1034">  ├── rc-rate@2.1.0 </tspan>
<tspan x="10" y="1050">  ├─┬ rc-select@6.8.0 </tspan>
<tspan x="10" y="1066">  │ └── warning@2.1.0 </tspan>
<tspan x="10" y="1082">  ├── rc-slider@6.3.1 </tspan>
<tspan x="10" y="1098">  ├── rc-steps@2.4.3 </tspan>
<tspan x="10" y="1114">  ├── rc-switch@1.4.3 </tspan>
<tspan x="10" y="1130">  ├── rc-table@5.2.15 </tspan>
<tspan x="10" y="1146">  ├─┬ rc-tabs@7.3.1 </tspan>
<tspan x="10" y="1162">  │ ├── UNMET PEER DEPENDENCY react@^0.14.3 || ^15.0.0</tspan>
<tspan x="10" y="1178">  │ └─┬ react-hammerjs@0.5.0 </tspan>
<tspan x="10" y="1194">  │   └── hammerjs@2.0.8 </tspan>
<tspan x="10" y="1210">  ├── rc-time-picker@2.3.3 </tspan>
<tspan x="10" y="1226">  ├── rc-tooltip@3.4.2 </tspan>
<tspan x="10" y="1242">  ├── rc-tree@1.4.5 </tspan>
<tspan x="10" y="1258">  ├── rc-tree-select@1.9.3 </tspan>
<tspan x="10" y="1274">  ├─┬ rc-upload@2.3.4 </tspan>
<tspan x="10" y="1290">  │ └── warning@2.1.0 </tspan>
<tspan x="10" y="1306">  ├─┬ rc-util@4.0.2 </tspan>
<tspan x="10" y="1322">  │ └── add-dom-event-listener@1.0.2 </tspan>
<tspan x="10" y="1338">  ├── UNMET PEER DEPENDENCY react@^0.14.0 || ^15.0.0-0</tspan>
<tspan x="10" y="1354">  ├── UNMET PEER DEPENDENCY react-dom@^0.14.0 || ^15.0.0-0</tspan>
<tspan x="10" y="1370">  ├─┬ react-lazy-load@3.0.11 </tspan>
<tspan x="10" y="1386">  │ ├── eventlistener@0.0.1 </tspan>
<tspan x="10" y="1402">  │ └── lodash.throttle@4.1.1 </tspan>
<tspan x="10" y="1418">  ├─┬ react-slick@0.14.7 </tspan>
<tspan x="10" y="1434">  │ ├─┬ json2mq@0.2.0 </tspan>
<tspan x="10" y="1450">  │ │ └── string-convert@0.2.1 </tspan>
<tspan x="10" y="1466">  │ ├─┬ react-responsive-mixin@0.4.0 </tspan>
<tspan x="10" y="1482">  │ │ ├── can-use-dom@0.1.0 </tspan>
<tspan x="10" y="1498">  │ │ └── enquire.js@2.1.6 </tspan>
<tspan x="10" y="1514">  │ └─┬ slick-carousel@1.6.0 </tspan>
<tspan x="10" y="1530">  │   └── jquery@3.2.1 </tspan>
<tspan x="10" y="1546">  ├─┬ shallowequal@0.2.2 </tspan>
<tspan x="10" y="1562">  │ └─┬ lodash.keys@3.1.2 </tspan>
<tspan x="10" y="1578">  │   ├── lodash._getnative@3.9.1 </tspan>
<tspan x="10" y="1594">  │   ├── lodash.isarguments@3.1.0 </tspan>
<tspan x="10" y="1610">  │   └── lodash.isarray@3.0.4 </tspan>
<tspan x="10" y="1626">  └─┬ warning@3.0.0 </tspan>
<tspan x="10" y="1642">    └─┬ loose-envify@1.3.1 </tspan>
<tspan x="10" y="1658">      └── js-tokens@3.0.1</tspan>
</text>
</svg>
